name C:/MyDriveSym/Projects/mobilecap/Data\Session20210816_0002\mocap\ForceDataProcessed\walkingTS2_forces.mot
datacolumns 19
datarows 12
range 0.45200000 0.45750000
endheader 
time	R_ground_force_vx	R_ground_force_vy	R_ground_force_vz	R_ground_force_px	R_ground_force_py	R_ground_force_pz	R_ground_torque_x	R_ground_torque_y	R_ground_torque_z	L_ground_force_vx	L_ground_force_vy	L_ground_force_vz	L_ground_force_px	L_ground_force_py	L_ground_force_pz	L_ground_torque_x	L_ground_torque_y	L_ground_torque_z	
          0.45200000	         -1.33952500	        605.81121200	        -12.91738000	          0.27518700	          0.00600000	         -0.13037200	          0.00000000	         -5.51219900	          0.00000000	          0.00000000	          0.00000000	          0.00000000	          0.71822700	          0.00000000	         -0.17026000	          0.00000000	          0.00000000	          0.00000000	
          0.45250000	         -1.18258000	        605.77388200	        -12.98759100	          0.27523800	          0.00600000	         -0.13036000	          0.00000000	         -5.50908200	          0.00000000	          0.00000000	          0.00000000	          0.00000000	          0.71822700	          0.00000000	         -0.17026000	          0.00000000	          0.00000000	          0.00000000	
          0.45300000	         -1.02532200	        605.73823600	        -13.05796800	          0.27528800	          0.00600000	         -0.13034800	          0.00000000	         -5.50595900	          0.00000000	          0.00000000	          0.00000000	          0.00000000	          0.71822700	          0.00000000	         -0.17026000	          0.00000000	          0.00000000	          0.00000000	
          0.45350000	         -0.86775100	        605.70429300	        -13.12851100	          0.27533800	          0.00600000	         -0.13033600	          0.00000000	         -5.50283300	          0.00000000	          0.00000000	          0.00000000	          0.00000000	          0.71822700	          0.00000000	         -0.17026000	          0.00000000	          0.00000000	          0.00000000	
          0.45400000	         -0.70986900	        605.67207100	        -13.19921500	          0.27538800	          0.00600000	         -0.13032400	          0.00000000	         -5.49970200	          0.00000000	          0.00000000	          0.00000000	          0.00000000	          0.71822700	          0.00000000	         -0.17026000	          0.00000000	          0.00000000	          0.00000000	
          0.45450000	         -0.55167900	        605.64158800	        -13.27007800	          0.27543800	          0.00600000	         -0.13031200	          0.00000000	         -5.49656700	          0.00000000	          0.00000000	          0.00000000	          0.00000000	          0.71822700	          0.00000000	         -0.17026000	          0.00000000	          0.00000000	          0.00000000	
          0.45500000	         -0.39318300	        605.61286300	        -13.34109700	          0.27548800	          0.00600000	         -0.13030000	          0.00000000	         -5.49342900	          0.00000000	          0.00000000	          0.00000000	          0.00000000	          0.71822700	          0.00000000	         -0.17026000	          0.00000000	          0.00000000	          0.00000000	
          0.45550000	         -0.23438100	        605.58591300	        -13.41227000	          0.27553700	          0.00600000	         -0.13028800	          0.00000000	         -5.49028900	          0.00000000	          0.00000000	          0.00000000	          0.00000000	          0.71822700	          0.00000000	         -0.17026000	          0.00000000	          0.00000000	          0.00000000	
          0.45600000	         -0.07527600	        605.56075700	        -13.48359400	          0.27558700	          0.00600000	         -0.13027700	          0.00000000	         -5.48714700	          0.00000000	          0.00000000	          0.00000000	          0.00000000	          0.71822700	          0.00000000	         -0.17026000	          0.00000000	          0.00000000	          0.00000000	
          0.45650000	          0.08413100	        605.53741300	        -13.55506500	          0.27563600	          0.00600000	         -0.13026500	          0.00000000	         -5.48400300	          0.00000000	          0.00000000	          0.00000000	          0.00000000	          0.71822700	          0.00000000	         -0.17026000	          0.00000000	          0.00000000	          0.00000000	
          0.45700000	          0.24383800	        605.51589800	        -13.62668200	          0.27568500	          0.00600000	         -0.13025400	          0.00000000	         -5.48085800	          0.00000000	          0.00000000	          0.00000000	          0.00000000	          0.71822700	          0.00000000	         -0.17026000	          0.00000000	          0.00000000	          0.00000000	
          0.45750000	          0.40384300	        605.49623200	        -13.69844200	          0.27573400	          0.00600000	         -0.13024300	          0.00000000	         -5.47771200	          0.00000000	          0.00000000	          0.00000000	          0.00000000	          0.71822700	          0.00000000	         -0.17026000	          0.00000000	          0.00000000	          0.00000000	
